<svg xmlns="http://www.w3.org/2000/svg" enable-background="new 0 0 512 512" viewBox="0 0 512 512" id="books">
  <linearGradient id="a" x1="67.015" x2="444.616" y1="67.023" y2="444.624" gradientTransform="matrix(1 0 0 -1 0 512)" gradientUnits="userSpaceOnUse">
    <stop offset="0" stop-color="#71d171"></stop>
    <stop offset="1" stop-color="#83cafa"></stop>
  </linearGradient>
  <path fill="url(#a)" d="M422.838,416.184c0,5.501-4.495,10.182-10.182,10.182H82.602c-46.823,0-84.312-38.921-82.542-85.764c1.747-44.98,40.23-79.399,84.696-79.399c21.344,0,315.472,0,327.901,0c5.615,0,10.182,4.569,10.182,10.182c0,5.51-4.506,10.182-10.182,10.182c-14.038,0-314.416,0-328.427,0c-33.624,0-62.175,25.866-63.75,59.197c-1.718,35.516,26.527,65.239,62.123,65.239c36.052,0,294.428,0,330.054,0C418.27,406.002,422.838,410.57,422.838,416.184z M511.94,165.032c-1.747-44.964-40.213-79.399-84.696-79.399h-327.9c-5.615,0-10.182,4.568-10.182,10.181c0,5.676,4.672,10.182,10.182,10.182h15.386c18.244,0,294.854,0,313.043,0c33.566,0,62.171,25.806,63.751,59.203c1.722,35.615-26.622,65.233-62.124,65.233c-18.305,0-296.312,0-314.669,0H99.344c-5.615,0-10.182,4.569-10.182,10.182c0,5.676,4.67,10.181,10.182,10.181h313.312h16.742C476.237,250.797,513.71,211.85,511.94,165.032z M392.068,291.975v103.621l0,0c0,0-294.459,0-309.465,0c-29.496,0-53.168-24.593-51.729-54.334c1.314-27.797,25.304-49.287,53.355-49.287C99.076,291.975,390.452,291.975,392.068,291.975z M381.661,367.089H108.427c-2.873,0-5.203,2.329-5.203,5.203c0,2.874,2.33,5.203,5.203,5.203h273.234V367.089z M381.661,338.581H82.602c-2.873,0-5.203,2.329-5.203,5.203s2.33,5.203,5.203,5.203H381.66v-10.407H381.661z M381.661,310.073H108.427c-2.873,0-5.203,2.329-5.203,5.203s2.33,5.203,5.203,5.203h273.234V310.073z M429.398,220.025H119.933V116.404h307.839c28.055,0,52.041,21.494,53.355,49.292C482.557,195.264,459.044,220.025,429.398,220.025z M130.339,134.504v10.407h273.234c2.873,0,5.203-2.329,5.203-5.203c0-2.874-2.33-5.203-5.203-5.203H130.339z M408.777,196.722c0-2.874-2.33-5.203-5.203-5.203H130.339v10.407h273.234C406.447,201.926,408.777,199.595,408.777,196.722z M434.602,168.215c0-2.874-2.33-5.203-5.203-5.203H130.339v10.407h299.059C432.272,173.419,434.602,171.09,434.602,168.215z"></path>
</svg>
